<?xml version="1.0" standalone="no"?>
<!DOCTYPE svg PUBLIC "-//W3C//DTD SVG 20010904//EN"
 "http://www.w3.org/TR/2001/REC-SVG-20010904/DTD/svg10.dtd">
<svg version="1.0" xmlns="http://www.w3.org/2000/svg"
 width="260.000000pt" height="260.000000pt" viewBox="0 0 260.000000 260.000000"
 preserveAspectRatio="xMidYMid meet">
<metadata>
Created by potrace 1.11, written by Peter Selinger 2001-2013
</metadata>
<g transform="translate(0.000000,260.000000) scale(0.100000,-0.100000)"
fill="#000000" stroke="none">
<path d="M645 2314 c-33 -20 -82 -50 -110 -68 -27 -18 -57 -36 -65 -40 -14 -7
-5 1 58 55 24 20 29 39 10 39 -21 0 -138 -74 -138 -87 0 -7 -18 -29 -40 -50
-28 -24 -38 -39 -31 -46 7 -7 -1 -20 -25 -40 -30 -26 -34 -34 -28 -63 4 -23 1
-42 -10 -59 -19 -29 -20 -47 -4 -63 7 -7 13 -22 13 -35 0 -31 28 -24 93 25 30
22 55 38 58 36 2 -3 -27 -26 -64 -54 -37 -27 -76 -56 -86 -66 -18 -17 -18 -18
-1 -24 11 -5 31 0 48 10 43 24 45 12 3 -16 -37 -24 -47 -48 -20 -48 8 0 31 12
50 26 19 15 34 22 34 18 0 -5 -14 -20 -32 -34 -43 -34 -58 -50 -58 -61 0 -17
27 -9 68 21 51 37 53 33 7 -14 -36 -37 -45 -66 -22 -66 8 0 43 18 78 41 l64
40 -60 -55 c-60 -55 -60 -55 -35 -65 14 -5 20 -10 14 -10 -16 -1 -24 -37 -12
-49 6 -6 16 -8 23 -5 10 3 12 -2 8 -18 -5 -19 -3 -21 20 -17 23 4 24 3 14 -14
-10 -15 -9 -21 3 -28 8 -5 11 -10 7 -10 -4 0 4 -21 18 -46 14 -26 24 -53 21
-61 -6 -15 32 -35 49 -25 6 3 2 -4 -8 -15 -18 -21 -14 -33 14 -33 12 0 16 -6
12 -20 -7 -28 21 -26 77 6 l45 25 -44 -39 c-29 -25 -41 -41 -33 -46 7 -4 9
-19 5 -36 -5 -26 -2 -30 15 -30 12 0 24 5 27 10 3 5 11 10 17 10 7 0 6 -5 -2
-15 -12 -15 -6 -35 11 -35 12 0 149 136 149 148 0 4 -5 13 -11 19 -8 8 -6 14
9 22 39 21 54 42 41 57 -9 11 -6 18 15 35 37 29 56 49 56 59 0 20 -18 17 -60
-9 -76 -46 -146 -84 -135 -74 6 6 63 45 128 88 107 70 128 91 111 108 -3 3
-58 -29 -122 -72 -65 -43 -124 -81 -132 -85 -26 -14 33 32 115 89 136 93 180
130 183 153 2 12 17 31 33 43 17 11 29 28 28 38 -1 9 1 29 6 44 5 18 3 33 -3
39 -8 8 -7 15 5 23 9 7 13 17 9 24 -8 12 -65 -16 -241 -120 -49 -29 -122 -71
-160 -93 -39 -23 -102 -64 -140 -92 -78 -56 -95 -67 -95 -61 0 7 160 120 222
157 396 238 428 258 429 268 1 4 3 18 5 32 1 14 4 34 6 45 2 12 -2 19 -9 17
-17 -3 -16 13 1 28 18 14 10 40 -13 40 -9 0 -28 -7 -41 -17 -23 -15 -23 -14 4
15 28 31 28 52 -1 52 -13 0 -13 3 -3 15 25 31 -3 29 -63 -3 -34 -18 -53 -26
-43 -17 64 49 77 66 66 81 -7 7 -16 12 -20 9 -5 -3 -6 5 -2 17 4 18 2 20 -16
16 -19 -5 -20 -4 -11 14 13 24 8 31 -25 31 -14 0 -27 6 -30 14 -3 8 -11 11
-16 8 -6 -4 -17 -2 -24 4 -10 9 -29 1 -77 -32 -35 -24 -100 -65 -144 -92 -90
-54 -307 -195 -315 -204 -12 -15 -61 -41 -75 -41 -39 0 -2 44 50 60 58 18 112
51 280 170 83 59 165 115 183 125 34 21 43 45 15 45 -9 0 -24 -6 -32 -14 -14
-13 -229 -136 -237 -136 -3 0 -190 -116 -215 -134 -8 -6 -1 3 17 19 18 17 120
82 228 144 108 63 196 120 196 127 0 18 -3 18 -53 -6 -40 -20 -41 -20 -19 -1
24 21 29 41 10 41 -7 0 -40 -16 -73 -36z m264 -137 c-14 -12 -47 -39 -73 -61
-59 -47 -49 -71 13 -32 52 33 63 33 27 -1 -25 -23 -27 -28 -13 -38 11 -8 12
-16 6 -28 -15 -26 15 -33 48 -12 l27 18 -22 -28 c-12 -15 -22 -32 -22 -36 0
-17 34 -9 69 17 24 17 17 8 -20 -28 -31 -29 -54 -59 -52 -66 3 -6 9 -10 14 -6
5 3 9 0 9 -5 0 -6 -4 -11 -9 -11 -5 0 -14 -12 -20 -27 -14 -32 -184 -148 -201
-138 -6 4 -34 -10 -63 -31 -94 -68 -179 -124 -190 -124 -5 0 3 10 19 22 16 12
31 25 34 28 3 3 31 24 63 48 31 23 57 47 57 52 0 19 -22 21 -46 5 l-25 -16 15
29 c26 50 -6 57 -69 16 -36 -23 -35 -21 14 25 44 41 51 51 38 57 -9 3 -24 3
-32 0 -14 -5 -14 -4 0 16 19 27 20 52 2 45 -21 -8 -15 53 8 90 28 44 298 234
312 220 2 -3 -17 -18 -42 -33 -25 -16 -45 -37 -45 -46 0 -10 3 -18 6 -18 6 0
58 35 79 53 15 12 99 66 105 66 3 0 -7 -10 -21 -22z m-409 -91 c-17 -16 -119
-74 -108 -61 8 8 110 73 118 74 2 1 -2 -5 -10 -13z m359 -350 c-2 -2 -53 -34
-113 -71 -110 -68 -139 -76 -44 -12 29 20 75 51 103 71 27 20 52 31 54 25 1
-5 1 -12 0 -13z m231 5 c0 -5 -19 -15 -42 -23 -24 -8 -52 -19 -63 -23 -11 -4
-2 6 20 22 56 41 85 49 85 24z m-30 -67 c-8 -8 -23 -20 -34 -25 -13 -7 -9 -1
9 15 34 29 43 33 25 10z m-65 -42 c-18 -15 -85 -54 -85 -48 0 3 19 16 43 30
43 26 59 33 42 18z m-5 -46 c0 -3 -30 -26 -67 -53 -38 -26 -74 -53 -81 -60
-19 -19 -27 -16 -11 3 13 15 148 114 156 114 1 0 3 -2 3 -4z m-91 -10 c-13
-11 -192 -105 -182 -95 14 14 164 98 177 98 5 1 7 -1 5 -3z m-129 -109 c0 -9
-179 -137 -205 -147 -25 -10 -27 -9 -14 6 13 16 127 94 184 126 35 19 35 19
35 15z m-196 -31 c-11 -8 -34 -17 -50 -21 -25 -4 -23 -2 11 14 48 23 67 27 39
7z"/>
<path d="M1662 2042 c-18 -12 -28 -13 -49 -3 -21 10 -28 9 -34 -1 -6 -9 3 -17
26 -26 30 -12 34 -18 29 -38 -7 -26 5 -31 37 -14 16 9 19 7 19 -10 0 -11 4
-20 10 -20 5 0 7 -13 4 -30 -6 -29 -1 -35 32 -31 7 1 9 -9 6 -24 -6 -32 5 -32
54 1 38 25 38 25 -8 -20 -69 -65 -60 -88 19 -46 l38 21 -45 -40 c-38 -33 -42
-41 -28 -46 12 -5 38 7 80 37 66 46 107 71 77 46 -61 -51 -129 -114 -129 -120
0 -20 38 -3 111 47 43 30 79 53 79 50 0 -3 -13 -24 -30 -46 -16 -23 -27 -45
-24 -50 7 -11 52 7 92 37 35 27 53 25 45 -5 -7 -28 12 -34 38 -12 21 17 22 20
7 26 -9 4 -14 13 -11 21 3 8 0 21 -7 29 -9 11 -16 12 -33 2 -12 -7 -25 -16
-29 -22 -4 -5 -9 -7 -12 -4 -3 3 8 20 25 39 28 30 29 34 13 43 -12 7 -23 6
-36 -2 -10 -6 -18 -7 -18 -2 0 6 5 13 10 16 6 3 10 13 10 22 0 12 -7 14 -36 8
-23 -4 -34 -3 -30 4 13 20 -16 22 -49 2 -40 -23 -44 -20 -15 11 11 12 20 26
20 30 0 18 -33 20 -60 4 -38 -22 -47 -20 -25 4 12 14 15 24 9 30 -7 7 -24 0
-52 -20 -23 -16 -44 -30 -47 -30 -3 0 6 17 19 37 29 41 16 65 -17 35 -18 -16
-19 -16 -16 8 3 20 0 25 -17 24 -15 0 -20 5 -17 17 7 24 -8 29 -35 11z"/>
<path d="M1425 1985 c-78 -50 -102 -58 -56 -19 35 29 39 44 13 44 -20 0 -96
-49 -88 -57 3 -3 -10 -23 -29 -44 -19 -21 -32 -45 -29 -52 3 -8 -10 -25 -29
-40 -29 -22 -34 -32 -32 -59 2 -18 4 -36 4 -40 1 -5 7 -8 15 -8 7 0 21 -11 30
-24 17 -27 29 -27 89 -2 21 9 37 12 37 6 0 -24 39 -6 132 61 111 79 142 88 46
13 -85 -65 -107 -94 -73 -94 18 0 113 48 121 61 3 5 10 9 16 9 6 0 1 -9 -11
-19 -13 -11 -21 -27 -19 -35 3 -17 20 -11 82 29 l29 19 -12 -21 c-24 -46 -2
-58 40 -23 19 16 21 21 10 29 -8 5 -11 16 -6 31 7 21 4 22 -23 18 -27 -4 -30
-2 -21 13 14 27 -7 34 -39 13 l-27 -18 27 32 c26 31 28 62 4 62 -6 0 -29 -9
-51 -21 l-40 -21 38 32 c20 17 34 36 31 41 -9 15 -22 8 -145 -84 -118 -87
-196 -133 -207 -122 -9 9 69 69 245 187 71 48 88 68 58 68 -15 0 -234 -142
-288 -187 -16 -12 -36 -23 -45 -23 -24 0 16 36 103 94 39 25 75 50 82 56 7 5
15 10 17 10 5 0 103 57 115 67 3 2 0 8 -7 15 -8 8 -15 8 -27 -2 -8 -7 -18 -10
-21 -7 -3 3 3 12 15 19 23 14 28 38 9 38 -7 0 -44 -20 -83 -45z m45 -19 c0 -2
-8 -10 -17 -17 -16 -13 -17 -12 -4 4 13 16 21 21 21 13z"/>
<path d="M1220 1595 c-52 -32 -55 -33 -60 -14 -5 21 -9 22 -34 13 -15 -6 -16
-67 -3 -81 4 -3 -5 -17 -19 -30 -24 -23 -24 -49 0 -40 16 7 9 -39 -11 -70 -15
-23 -9 -63 9 -63 6 0 4 -8 -6 -19 -13 -15 -14 -20 -3 -29 20 -17 76 13 212
113 210 155 345 239 345 215 0 -25 -75 -77 -365 -251 -115 -70 -210 -132 -210
-140 0 -22 30 -22 75 0 30 14 40 16 37 6 -11 -27 21 -23 74 9 169 101 227 120
87 28 -55 -35 -74 -62 -44 -62 14 0 32 11 166 107 109 77 170 115 170 106 -1
-5 -31 -29 -68 -55 -79 -56 -152 -121 -152 -136 0 -28 44 -12 137 50 56 37
105 68 108 68 4 0 13 7 21 15 9 8 20 15 26 15 10 0 -24 -30 -86 -75 -49 -35
-66 -52 -66 -64 0 -18 28 -13 72 15 23 15 39 20 35 13 -20 -50 -20 -49 5 -49
13 0 33 7 44 15 22 16 38 20 29 6 -7 -13 10 -22 28 -15 20 7 28 74 9 81 -7 3
-18 1 -25 -6 -24 -24 -29 -9 -5 17 23 25 29 60 7 46 -15 -9 -10 13 6 26 17 14
18 20 6 39 -8 12 -23 6 -85 -32 -42 -26 -76 -43 -76 -38 0 5 6 11 14 14 7 3
45 29 85 57 68 50 89 80 56 80 -17 0 -20 16 -5 25 15 10 12 35 -5 35 -8 0 -14
3 -14 8 6 37 -16 42 -55 11 -15 -12 -30 -19 -33 -15 -4 3 -2 6 4 6 13 0 33 44
25 57 -13 19 -37 20 -78 2 -29 -12 -45 -14 -52 -7 -7 7 -73 -32 -211 -126
-189 -127 -231 -151 -231 -126 0 10 20 25 131 98 158 104 199 134 199 147 0 8
-3 15 -7 15 -5 0 -211 -128 -264 -164 -8 -6 0 3 18 21 19 17 66 52 104 78 46
31 67 51 61 57 -7 7 -27 1 -59 -17 -35 -20 -42 -22 -25 -7 21 19 30 52 15 52
-5 0 -33 -16 -63 -35z m80 -320 c0 -2 -10 -9 -22 -15 -22 -11 -22 -10 -4 4 21
17 26 19 26 11z"/>
<path d="M1900 1600 c-45 -30 -66 -38 -56 -21 3 5 -1 14 -9 21 -12 10 -18 10
-31 -1 -13 -11 -13 -15 -2 -24 7 -6 18 -20 25 -31 9 -17 8 -24 -4 -37 -20 -19
-8 -41 15 -28 14 7 17 4 17 -19 0 -16 -3 -32 -7 -36 -14 -13 -8 -52 8 -58 12
-5 13 -10 6 -19 -6 -7 -8 -18 -4 -24 8 -13 62 -6 62 8 0 5 6 9 14 9 8 0 16 3
18 8 3 6 149 112 228 165 36 25 49 21 20 -6 -27 -24 -286 -197 -295 -197 -4 0
-13 -7 -21 -15 -8 -8 -22 -19 -31 -23 -19 -11 -9 -32 14 -32 9 0 36 12 60 26
25 14 47 23 50 21 3 -3 -20 -20 -51 -37 -64 -36 -74 -48 -51 -56 15 -6 82 33
253 148 39 27 72 47 72 45 0 -3 -90 -74 -182 -143 -27 -19 -48 -42 -48 -51 0
-22 17 -13 138 70 131 90 150 101 93 51 -67 -58 -101 -95 -101 -110 0 -24 25
-15 104 36 l77 50 -23 -39 c-12 -22 -20 -43 -16 -47 12 -11 73 31 73 52 0 10
4 30 9 43 12 36 -5 43 -49 21 l-40 -19 49 43 c49 43 56 74 14 63 -18 -5 -19
-4 -4 12 20 22 21 51 1 51 -8 0 -15 5 -15 10 0 20 -31 22 -53 4 -14 -12 -12
-7 6 12 28 32 36 63 15 65 -20 2 -21 2 -48 -6 -25 -6 -24 -6 3 13 22 15 25 21
14 30 -10 8 -25 2 -63 -26 -180 -135 -269 -190 -282 -177 -10 9 61 67 160 133
81 53 108 82 74 82 -7 0 -47 -24 -88 -54 -41 -29 -88 -61 -104 -71 -26 -16
-25 -14 7 16 20 19 53 48 74 65 54 42 39 60 -23 27 -43 -24 -45 -24 -24 -4 48
48 18 55 -48 11z m340 -184 c0 -2 -8 -10 -17 -17 -16 -13 -17 -12 -4 4 13 16
21 21 21 13z m-220 -100 c0 -2 -8 -10 -17 -17 -16 -13 -17 -12 -4 4 13 16 21
21 21 13z"/>
<path d="M966 1308 c-25 -39 -40 -78 -32 -85 9 -9 94 37 101 55 4 11 -1 13
-18 10 -20 -4 -23 -1 -19 19 6 29 -13 30 -32 1z"/>
<path d="M1177 1120 c-53 -33 -67 -37 -67 -16 0 22 -15 27 -35 12 -18 -13 -18
-15 -2 -31 10 -9 15 -20 12 -25 -3 -5 0 -10 6 -12 6 -2 2 -13 -10 -27 -23 -26
-19 -45 7 -37 13 5 17 -1 17 -23 0 -16 -3 -33 -7 -37 -13 -12 -9 -41 6 -53 8
-7 12 -21 9 -31 -9 -32 33 -25 96 17 31 20 58 39 61 42 11 13 218 159 261 184
96 56 86 24 -13 -43 -93 -64 -378 -240 -388 -240 -5 0 -14 -9 -20 -20 -24 -45
47 -32 143 25 l42 26 -29 -24 c-16 -14 -50 -35 -77 -47 -26 -13 -50 -29 -53
-36 -9 -24 37 -16 85 14 24 15 71 43 104 61 33 19 71 41 85 50 13 9 21 11 17
5 -3 -6 -47 -38 -97 -70 -83 -54 -106 -81 -67 -78 8 1 73 42 144 92 147 103
320 214 282 180 -15 -13 -84 -63 -154 -113 -155 -109 -197 -155 -142 -155 13
0 84 40 158 88 173 113 189 123 189 119 0 -5 -157 -122 -202 -151 -29 -19 -38
-46 -15 -46 6 0 31 11 55 25 33 19 40 20 33 7 -10 -20 -4 -42 12 -42 7 0 29 9
50 20 31 17 37 17 37 5 0 -8 4 -15 10 -15 12 0 50 82 43 93 -3 4 -20 -1 -39
-12 -19 -11 -34 -16 -34 -11 0 6 4 10 10 10 16 0 60 54 55 68 -3 7 2 24 11 37
21 33 12 59 -18 49 -13 -3 -61 -32 -108 -63 -97 -64 -120 -78 -105 -64 23 23
166 123 175 123 5 0 10 4 10 9 0 5 8 12 18 15 10 4 29 16 42 28 21 20 22 22 5
34 -16 12 -16 14 -1 29 9 9 16 23 16 31 0 14 -8 17 -42 17 -10 0 -18 4 -18 8
0 18 -27 7 -98 -41 l-74 -49 36 39 c58 64 30 93 -52 55 -37 -17 -49 -20 -45
-9 14 37 -54 -4 -275 -166 -54 -40 -112 -65 -112 -49 0 15 7 20 153 121 64 45
117 88 117 95 0 21 -19 15 -69 -20 -138 -99 -180 -126 -175 -114 3 8 41 40 85
72 43 31 79 62 79 67 0 15 -48 1 -84 -24 l-31 -21 28 29 c24 27 27 44 7 44 -3
0 -27 -13 -53 -30z m568 -50 c-3 -5 -11 -10 -16 -10 -6 0 -7 5 -4 10 3 6 11
10 16 10 6 0 7 -4 4 -10z"/>
<path d="M1948 1115 c-52 -31 -58 -32 -58 -15 0 26 -14 32 -36 15 -13 -10 -15
-17 -8 -22 23 -16 24 -57 3 -79 -22 -24 -18 -47 6 -38 17 7 11 -25 -13 -73
-13 -25 -13 -34 -3 -46 10 -12 10 -20 -1 -37 -11 -17 -11 -22 1 -30 23 -14 60
8 251 149 120 89 220 147 220 126 0 -12 -348 -245 -367 -245 -11 0 -143 -91
-143 -99 0 -24 38 -16 117 25 48 25 94 50 103 57 13 10 13 10 3 -3 -6 -8 -29
-24 -50 -35 -58 -29 -65 -36 -53 -51 12 -13 86 27 228 124 34 24 62 41 62 39
0 -4 -161 -134 -184 -149 -8 -5 -7 -11 1 -19 9 -9 32 3 99 50 48 33 90 58 93
56 2 -3 -5 -13 -15 -22 -23 -21 -54 -64 -54 -75 0 -18 34 -6 72 23 28 22 36
34 27 40 -9 5 -1 18 26 45 34 33 37 38 22 49 -15 11 -14 14 7 34 21 19 24 31
22 75 -1 32 3 60 13 75 13 21 13 25 -3 36 -9 7 -26 11 -37 8 -15 -4 -18 -2
-13 11 4 9 1 16 -6 16 -12 0 -229 -141 -332 -217 -46 -33 -88 -50 -88 -34 0
16 19 30 258 189 47 32 68 62 42 62 -6 0 -65 -36 -131 -81 -66 -44 -123 -79
-125 -76 -4 3 45 41 171 131 18 13 18 15 3 21 -9 4 -34 -5 -60 -21 -43 -26
-43 -26 -20 -2 22 24 29 48 15 48 -5 0 -34 -16 -65 -35z"/>
<path d="M945 1123 c-20 -11 -30 -12 -33 -4 -10 29 -62 3 -62 -31 0 -10 -3
-18 -7 -18 -13 0 -83 -68 -83 -79 0 -20 21 -11 98 43 90 63 132 85 150 79 6
-3 12 2 12 11 0 21 -36 20 -75 -1z"/>
<path d="M516 1123 c-3 -3 1 -21 10 -41 12 -30 12 -37 0 -51 -16 -19 -10 -42
10 -34 20 7 34 -36 21 -65 -8 -18 -8 -25 3 -32 8 -5 18 -6 23 -3 4 2 7 -8 5
-24 -2 -18 1 -27 10 -26 16 4 15 -3 -4 -32 -15 -23 -15 -25 1 -31 17 -7 138
47 150 67 4 5 11 9 17 9 12 0 -62 -59 -74 -60 -4 0 -23 -11 -42 -23 -23 -16
-32 -28 -26 -37 9 -15 22 -8 190 103 58 38 101 65 95 59 -9 -9 -155 -118 -220
-165 -14 -10 -25 -22 -25 -27 0 -23 39 -5 138 63 142 98 149 100 70 27 -39
-35 -68 -70 -68 -81 0 -18 2 -18 33 -5 19 7 58 30 86 51 29 20 55 35 57 33 2
-2 -8 -17 -21 -32 -14 -16 -25 -32 -25 -36 0 -15 26 -17 45 -4 24 18 35 18 35
-1 0 -8 9 -15 20 -15 22 0 25 16 10 55 -6 15 -15 23 -21 20 -6 -4 -4 6 4 22
26 49 7 60 -49 29 -39 -21 -44 -22 -24 -5 80 67 91 79 85 88 -3 6 -13 11 -22
11 -15 0 -14 2 0 18 19 21 22 42 7 42 -5 0 -10 11 -10 25 0 14 -4 25 -9 25 -5
0 -65 -35 -133 -79 -67 -43 -145 -91 -173 -107 l-49 -29 27 36 c15 20 27 41
27 47 0 18 -18 24 -40 12 -20 -11 -30 3 -10 15 15 9 12 35 -4 35 -7 0 -19 -7
-26 -15 -20 -24 -23 -10 -6 24 10 19 12 32 6 36 -6 3 -10 3 -11 -2 0 -4 -5 5
-9 21 -6 17 -5 36 0 47 13 23 -3 33 -30 19 -16 -8 -20 -8 -20 4 0 15 -24 29
-34 19z m434 -187 c0 -2 -8 -10 -17 -17 -16 -13 -17 -12 -4 4 13 16 21 21 21
13z"/>
<path d="M796 636 c-36 -21 -42 -22 -62 -10 -20 13 -54 10 -54 -5 0 -3 18 -15
40 -25 33 -16 38 -22 30 -37 -15 -26 4 -33 40 -14 30 16 31 16 21 -4 -9 -16
-8 -21 7 -25 11 -4 18 -15 18 -29 -1 -18 4 -22 30 -22 21 0 30 -4 27 -12 -12
-31 57 -17 87 17 3 3 21 16 40 29 33 22 34 22 10 1 -99 -87 -113 -102 -99
-110 9 -6 29 -1 56 15 48 26 55 23 18 -9 -15 -13 -21 -26 -16 -34 6 -10 20 -4
59 22 29 19 52 33 52 31 0 -2 -13 -19 -30 -37 -52 -57 -35 -78 26 -32 40 31
50 28 33 -10 -17 -36 -4 -44 34 -22 31 17 32 17 46 -3 19 -30 34 -26 26 6 -9
36 -25 55 -42 49 -16 -7 -17 16 -1 32 18 18 -9 34 -35 21 -18 -10 -18 -9 -2
15 20 30 11 49 -17 40 -17 -5 -19 -3 -13 15 7 24 -5 27 -38 10 l-22 -12 23 25
c45 49 14 78 -46 42 -17 -11 -13 -4 13 19 34 30 37 36 22 42 -12 5 -31 -4 -60
-27 -63 -52 -138 -101 -144 -95 -6 6 15 28 85 85 29 24 52 48 52 53 0 19 -33
7 -86 -32 -62 -46 -80 -48 -34 -4 17 16 30 32 30 37 0 13 -35 9 -56 -7 -27
-20 -40 -19 -21 3 15 17 14 32 -2 32 -3 0 -24 -11 -45 -24z"/>
<path d="M1247 630 c-45 -28 -47 -29 -57 -10 -12 22 -18 24 -40 10 -12 -7 -9
-14 17 -38 30 -26 31 -30 17 -44 -22 -21 -9 -42 16 -28 29 16 28 17 34 -50 2
-25 9 -38 24 -45 12 -5 22 -15 22 -22 0 -38 80 4 207 107 6 5 46 32 89 60 70
45 94 57 94 46 0 -6 -108 -82 -248 -175 -67 -45 -122 -85 -122 -90 0 -25 27
-19 105 23 47 24 85 43 85 41 0 -2 -29 -22 -65 -44 -36 -23 -65 -48 -65 -56 0
-20 22 -11 115 52 l80 53 -64 -58 c-38 -35 -60 -61 -54 -65 13 -8 133 63 133
78 0 6 20 31 45 55 24 24 42 47 39 52 -3 5 1 20 10 33 21 32 21 59 0 51 -9 -4
-2 7 16 24 17 16 30 35 27 42 -8 24 -72 12 -121 -21 -26 -18 -49 -31 -52 -29
-2 3 7 11 21 18 24 13 33 34 17 44 -4 2 -37 -18 -72 -46 -83 -65 -188 -133
-220 -143 l-25 -8 19 22 c11 12 60 51 108 87 48 37 88 70 88 75 0 21 -37 5
-107 -46 -92 -67 -117 -72 -39 -9 31 26 56 50 56 55 0 19 -19 16 -53 -7 -38
-25 -49 -24 -22 3 14 14 12 33 -4 33 -4 0 -28 -13 -54 -30z"/>
<path d="M1914 646 c-42 -29 -118 -68 -106 -56 18 20 15 40 -7 40 -30 0 -40
-21 -43 -90 0 -8 -14 -29 -30 -46 -16 -17 -28 -35 -27 -40 5 -20 -17 -52 -69
-99 -48 -45 -54 -54 -48 -78 5 -22 12 -27 39 -27 38 0 205 81 265 129 22 17
51 35 67 41 18 7 25 15 21 25 -3 9 4 19 17 26 12 7 27 18 34 25 7 6 28 22 48
34 33 21 48 50 24 50 -6 0 -28 -13 -48 -28 -20 -16 -71 -53 -115 -81 -79 -54
-105 -73 -135 -102 -46 -44 -163 -101 -182 -88 -11 8 -3 19 34 54 27 25 57 45
67 45 29 0 68 19 150 75 83 56 83 55 125 88 17 13 47 34 68 46 20 12 37 29 37
37 0 21 -17 17 -63 -14 -23 -16 -69 -43 -102 -62 -33 -18 -75 -42 -94 -53 -19
-12 -32 -16 -28 -11 3 6 51 39 107 74 66 41 98 66 91 73 -6 6 -30 -2 -68 -23
l-58 -33 39 35 c31 27 36 36 24 40 -9 4 -24 1 -34 -6z"/>
</g>
</svg>
